<?xml version="1.0" encoding="utf-8"?>
<!-- Generator: Adobe Illustrator 16.0.0, SVG Export Plug-In . SVG Version: 6.00 Build 0)  -->
<!DOCTYPE svg PUBLIC "-//W3C//DTD SVG 1.1//EN" "http://www.w3.org/Graphics/SVG/1.1/DTD/svg11.dtd">
<svg version="1.1" id="Layer_1" xmlns="http://www.w3.org/2000/svg" xmlns:xlink="http://www.w3.org/1999/xlink" x="0px" y="0px"
	 width="100px" height="79.387px" viewBox="0 0 100 79.387" enable-background="new 0 0 100 79.387" xml:space="preserve">
<g id="Your_Icon">
	<g>
		<circle fill="#010101" cx="86.877" cy="1.405" r="1.405"/>
		<circle fill="#010101" cx="85.445" cy="5.862" r="1.404"/>
		<circle fill="#010101" cx="84.016" cy="10.318" r="1.405"/>
		<path fill="#010101" d="M72.801,21.599c-0.69,0.354-0.963,1.201-0.61,1.89c0.357,0.689,1.206,0.961,1.896,0.608
			c0.687-0.356,0.96-1.203,0.606-1.892C74.338,21.516,73.49,21.244,72.801,21.599z"/>
		<circle fill="#010101" cx="69.28" cy="24.986" r="1.404"/>
		<circle fill="#010101" cx="65.118" cy="27.128" r="1.403"/>
		<path fill="#010101" d="M98.193,11.703c0.687-0.355,0.962-1.203,0.607-1.892c-0.354-0.689-1.203-0.961-1.893-0.606
			c-0.689,0.354-0.961,1.2-0.606,1.89S97.503,12.057,98.193,11.703z"/>
		<path fill="#010101" d="M93.816,11.255c-0.739-0.236-1.528,0.17-1.767,0.908c-0.238,0.739,0.169,1.53,0.909,1.767
			c0.736,0.237,1.528-0.169,1.764-0.907C94.959,12.285,94.554,11.492,93.816,11.255z"/>
		<circle fill="#010101" cx="89.224" cy="14.733" r="1.405"/>
		<path fill="#010101" d="M84.707,25.417c-0.688,0.355-0.961,1.203-0.606,1.892s1.199,0.961,1.89,0.609
			c0.689-0.356,0.962-1.204,0.609-1.894C86.243,25.336,85.398,25.064,84.707,25.417z"/>
		<circle fill="#010101" cx="87.49" cy="30.83" r="1.404"/>
		<circle fill="#010101" cx="89.628" cy="34.993" r="1.405"/>
		<circle fill="#010101" cx="72.929" cy="2.507" r="1.405"/>
		<circle fill="#010101" cx="75.069" cy="6.671" r="1.404"/>
		<path fill="#010101" d="M76.782,12.171c0.736,0.235,1.527-0.17,1.764-0.908c0.238-0.74-0.169-1.53-0.905-1.768
			c-0.741-0.236-1.528,0.17-1.769,0.909C75.635,11.143,76.042,11.935,76.782,12.171z"/>
		<circle fill="#010101" cx="78.578" cy="27.254" r="1.404"/>
		<circle fill="#010101" cx="77.149" cy="31.711" r="1.405"/>
		<circle fill="#010101" cx="75.718" cy="36.169" r="1.404"/>
		<circle fill="#010101" cx="89.684" cy="21.478" r="1.404"/>
		<circle fill="#010101" cx="94.137" cy="22.907" r="1.404"/>
		<path fill="#010101" d="M99.022,23c-0.736-0.237-1.526,0.17-1.762,0.908c-0.24,0.738,0.168,1.529,0.907,1.766
			c0.736,0.237,1.527-0.169,1.764-0.907C100.169,24.028,99.763,23.237,99.022,23z"/>
		<path fill="#010101" d="M54.398,9.17c1.385,0.445,3.509,2.209,5.566,3.916c2.688,2.234,5.471,4.542,8.156,5.404
			c3.18,1.02,9.121,1.568,12.688,1.816l1.179-3.675c-3.21-0.207-9.648-0.721-12.725-1.707c-1.993-0.641-4.604-2.806-6.908-4.72
			c-2.438-2.025-4.737-3.935-6.812-4.6c-4.174-1.339-11.566-0.462-14.919,7.011l-6.343-2.036c-1.476-0.473-3.058,0.339-3.532,1.816
			l-1.666,5.191C16.72,18.329,5.5,26.5,1.487,39.003c-5.219,16.264,3.736,33.677,19.998,38.896
			c16.26,5.219,33.674-3.733,38.895-19.997c4.002-12.474-0.339-25.615-9.913-33.421l1.674-5.22c0.474-1.477-0.34-3.058-1.816-3.533
			l-6.097-1.957C46.945,8.266,52.363,8.518,54.398,9.17z M36.973,22.12l-1.122,3.496c-0.149,0.463-0.03,1.158,0.263,1.544
			l1.221,1.613c0.292,0.386,0.911,0.827,1.372,0.975l1.248,0.401c0.464,0.15,0.743,0.575,0.623,0.948
			c-0.12,0.374-0.565,0.871-0.992,1.104l-2.404,1.316c-0.428,0.233-0.397,0.547,0.065,0.697l1.198,0.388
			c0.46,0.148,0.719,0.65,0.569,1.114l-0.973,3.021c-0.149,0.461,0.107,0.962,0.57,1.11l1.351,0.434
			c0.464,0.149,0.75,0.559,0.638,0.912c-0.112,0.35-0.583,0.517-1.046,0.366l-4.147-1.331c-0.463-0.149-1.216-0.137-1.672,0.025
			l-2.116,0.751c-0.458,0.16-0.955,0.671-1.103,1.136l-1.613,5.026c-0.147,0.463-0.647,0.722-1.11,0.573l-0.235-0.075
			c-0.463-0.148-0.719-0.648-0.572-1.113l0.928-2.894c0.15-0.463-0.106-0.961-0.57-1.109l-2.27-0.728
			c-0.459-0.149-0.961,0.107-1.113,0.57l-0.762,2.332c-0.15,0.462-0.053,1.17,0.215,1.578l2.486,3.761
			c0.266,0.407,0.866,0.861,1.326,1.01l5.594,1.798c0.461,0.148,1.12,0.556,1.459,0.899l5.932,6.01
			c0.343,0.349,0.499,1.007,0.351,1.472l-0.083,0.256l-0.001-0.001c-0.148,0.463-0.542,1.133-0.875,1.486l-3.604,3.846
			c-0.333,0.354-0.963,0.812-1.405,1.021l-9.098,4.29c-0.439,0.207-0.42,0.499,0.042,0.647l0.8,0.259
			c0.463,0.147,0.739,0.601,0.608,1.006c-0.131,0.406-0.618,0.618-1.082,0.469l-3.44-1.104c-0.462-0.147-0.72-0.647-0.57-1.113
			l2.874-8.951c0.149-0.464,0.647-0.719,1.11-0.571l0.957,0.308c0.462,0.147,0.963-0.11,1.111-0.57l0.306-0.958
			c0.15-0.463-0.108-0.963-0.571-1.113l-0.956-0.308c-0.463-0.148-0.721-0.647-0.571-1.11l1.684-5.242
			c0.149-0.463-0.109-0.962-0.574-1.113l-1.423-0.456c-0.46-0.146-1.079-0.586-1.37-0.977l-3.499-4.655
			c-0.293-0.387-0.621-1.093-0.727-1.568L19.24,40.75c-0.106-0.475-0.572-0.984-1.036-1.132l-1.01-0.324
			c-0.462-0.148-0.897-0.663-0.965-1.146l-0.822-5.869c-0.065-0.48-0.001-1.253,0.147-1.717l0.931-2.899
			c0.149-0.463-0.127-0.847-0.613-0.853l-1.083-0.013C20.981,22.197,29.044,20.297,36.973,22.12z M46.409,35.606
			c-0.459,0.154-1.217,0.16-1.679,0.011l-0.363-0.116c-0.462-0.148-0.721-0.649-0.571-1.11l0.877-2.736
			c0.149-0.462-0.107-0.961-0.571-1.11l-1.218-0.391c-0.463-0.148-0.72-0.648-0.571-1.111l1.407-4.385
			c3.787,2.035,6.958,4.896,9.331,8.288C52.826,33.271,46.409,35.606,46.409,35.606z"/>
	</g>
</g>
</svg>
