<svg xmlns="http://www.w3.org/2000/svg" xmlns:xlink="http://www.w3.org/1999/xlink" version="1.1" id="Capa_1" x="0px" y="0px" width="100px" height="100px" viewBox="0 0 100 100" enable-background="new 0 0 100 100" xml:space="preserve">
<g id="Capa_33" display="none">
</g>
<g id="Capa_39">
	<g>
		<g>
			<g>
				<path d="M48.662,26.105c3.671-2.219,4.85-6.991,2.63-10.667c-2.213-3.671-6.994-4.851-10.665-2.635      c-3.684,2.229-4.859,7.007-2.635,10.677C40.211,27.154,44.981,28.332,48.662,26.105z"/>
				<path d="M69.162,68.618l7.869,20.44l6.553-3.867L72.432,66.311c-0.043-0.076-0.091-0.15-0.141-0.223l-9.385-13.805l-0.037,0.025      c-0.074-0.259-0.133-0.519-0.242-0.771l-1.73-4.024l-1.97-0.45c-0.807-0.235-1.481-0.657-2.009-1.236l-4.785-6.71l5.506,6.054      c0.406,0.446,0.928,0.773,1.506,0.943l14.912,3.394l1.297-4.415l-13.472-5.029l-8.974-9.866l0,0      c-1.85-1.796-4.665-2.411-7.178-1.329c-3.335,1.434-4.878,5.301-3.445,8.636l8.261,19.224c0.242,0.563,0.562,1.066,0.929,1.521      l-0.061,0.039l9.33,14.051l7.417,19.266l7.669-2.951l-7.578-19.688c-0.107-0.281-0.244-0.548-0.411-0.798l-5.862-8.827      l6.623,8.217C68.855,67.938,69.027,68.27,69.162,68.618z"/>
			</g>
			<path d="M64.706,27.35c-0.024,0.02,0.487-0.37,1.338-0.891c0.858-0.525,2.088-1.244,3.632-1.955     c1.527-0.741,3.377-1.45,5.389-2.082c1.021-0.276,2.057-0.612,3.146-0.81c0.541-0.112,1.085-0.225,1.633-0.339l1.664-0.227     c1.104-0.189,2.229-0.207,3.322-0.281c1.095-0.1,2.18,0.018,3.221,0.015c1.043-0.006,2.042,0.196,2.989,0.275     c0.952,0.073,1.83,0.286,2.644,0.452c0.81,0.185,1.563,0.282,2.205,0.498c0.643,0.197,1.203,0.369,1.666,0.51     c0.92,0.283,1.444,0.444,1.444,0.444s-0.536-0.122-1.476-0.336c-0.469-0.107-1.037-0.236-1.688-0.385     c-0.647-0.165-1.407-0.207-2.219-0.331c-0.813-0.104-1.689-0.25-2.632-0.251c-0.938-0.009-1.922-0.137-2.944-0.053     c-1.019,0.079-2.072,0.038-3.131,0.217c-1.058,0.15-2.138,0.245-3.188,0.508l-1.584,0.336c-0.517,0.148-1.031,0.296-1.541,0.443     c-1.029,0.264-2,0.66-2.949,0.995c-1.873,0.745-3.576,1.545-4.965,2.351c-1.404,0.776-2.5,1.534-3.248,2.069     c-0.752,0.544-1.093,0.853-1.119,0.869L64.706,27.35z"/>
			<path d="M65.709,35.357c-0.023,0.021,0.488-0.369,1.338-0.892c0.855-0.523,2.088-1.243,3.631-1.954     c1.527-0.74,3.379-1.448,5.391-2.081c1.02-0.278,2.055-0.612,3.146-0.81c0.541-0.112,1.085-0.226,1.632-0.339l1.664-0.229     c1.104-0.189,2.229-0.207,3.322-0.279c1.096-0.102,2.182,0.018,3.223,0.015c1.043-0.006,2.041,0.195,2.988,0.275     c0.95,0.074,1.83,0.287,2.643,0.452c0.81,0.185,1.564,0.283,2.205,0.498c0.643,0.198,1.202,0.371,1.666,0.513     c0.92,0.282,1.444,0.444,1.444,0.444s-0.537-0.123-1.478-0.338c-0.467-0.106-1.035-0.236-1.688-0.386     c-0.646-0.165-1.408-0.206-2.218-0.33c-0.813-0.104-1.69-0.251-2.634-0.252c-0.938-0.009-1.922-0.136-2.942-0.053     c-1.019,0.079-2.074,0.038-3.131,0.217c-1.06,0.15-2.138,0.244-3.19,0.508l-1.582,0.335c-0.519,0.148-1.031,0.297-1.543,0.443     c-1.029,0.264-1.998,0.662-2.947,0.995c-1.873,0.745-3.578,1.545-4.965,2.35c-1.404,0.777-2.5,1.533-3.248,2.069     c-0.752,0.546-1.093,0.854-1.119,0.871L65.709,35.357z"/>
		</g>
		<g>
			<path d="M14.59,23.369c4.291,0.025,7.786-3.43,7.812-7.723c0.03-4.288-3.43-7.791-7.717-7.816     c-4.306-0.022-7.804,3.438-7.824,7.73C6.838,19.851,10.288,23.346,14.59,23.369z"/>
			<path d="M17.905,37.787l1.249,3.098l7.841,5.126l11.839-0.486l0.091-4.6l-14.489-1.271L17.85,29.353     c-0.947-1.803-2.7-3.15-4.868-3.463c-3.6-0.523-6.928,1.973-7.447,5.565L2.542,52.162c-0.082,0.561-0.074,1.107-0.014,1.645     l-0.02,0.004l2.503,17.054L0,90.1l7.954,2.07l5.224-20.053c0.141-0.54,0.17-1.104,0.086-1.655l-2.329-15.846l1.008,4.36l0,0     l2.036,8.805l2.149,3.688l0.137,20.158l8.217-0.057l-0.145-21.254c-0.005-0.717-0.197-1.42-0.559-2.041l-8.243-14.143     c0.005-0.029,0.014-0.06,0.019-0.091l0.811-5.61l-2.577-1.257c-0.967-0.543-1.643-1.393-1.943-2.412l-1.852-9.155l2.599,8.935     c0.243,0.82,0.793,1.512,1.537,1.932l14.782,7.208l2.263-4.008l-12.655-8.272l-2.169-7.47L17.905,37.787L17.905,37.787z"/>
		</g>
	</g>
</g>
</svg>