<svg xmlns="http://www.w3.org/2000/svg" xmlns:xlink="http://www.w3.org/1999/xlink" version="1.1" id="Capa_1" x="0px" y="0px" width="100px" height="100px" viewBox="0 0 100 100" enable-background="new 0 0 100 100" xml:space="preserve">
<g id="Capa_46">
	<g>
		<path d="M52.41,50.539l2.552-5.418c1.001-2.121,3.106-3.375,5.31-3.369c0.826-0.006,1.686,0.171,2.492,0.559l7.284,3.427    c0.743-3.319-0.089-6.282-0.089-6.282s-0.775,4.687-2.791,3.71c-2.012-0.972,0.506-1.892,0.764-7.737    c0.254-5.843-2.816-7.122-2.816-7.122c0.47,0.571,0.52,2.418-0.539,2.868c-1.389,0.578-2.572,0.227-3.512-1.542    c-2.705-5.073,1.429-8.906,1.429-8.906c-4.604-0.096-8.14,4.167-7.382,7.588c0.978,4.396,0.797,7.438-0.74,7.453    c-1.546,0.031-0.816-2.628-0.816-2.628s-6.845,2.993-3.971,12.745C50.132,47.738,51.134,49.302,52.41,50.539z"/>
		<path d="M97.271,59.787l-10.479-4.934c0.438-1.347,0.503-2.879,0.061-4.127c-0.154-0.441-1.307-1.694-1.297-2.028    c0,0.011-0.045,1.726-0.967,1.429c-0.919-0.282-0.479-2.14,0.895-4.602c1.074-1.914-0.287-5.109-3.062-5.871    c0,0,1.792,3.037-0.741,5.596c-0.882,0.889-1.658,0.894-2.383,0.295c-0.557-0.461-0.195-1.559,0.191-1.82    c0,0-2.072,0.217-2.969,3.77c-0.221,0.877-0.305,1.669-0.326,2.375l-13.907-6.546c-2.371-1.112-5.197-0.096-6.313,2.276    l-3.863,8.205c-0.971,2.063-0.319,4.471,1.43,5.793h30.736c3.24,0,5.863,2.623,5.863,5.862v9.07c0,0.768-0.156,1.495-0.427,2.17    c2.296,0.87,4.906-0.138,5.97-2.396l3.859-8.203C100.664,63.73,99.646,60.902,97.271,59.787z"/>
		<path d="M84.284,60.714H45.621c-2.619,0-4.745,2.127-4.745,4.747v9.066c0,2.619,2.126,4.742,4.745,4.742h38.663    c2.62,0,4.745-2.123,4.745-4.742v-9.066C89.029,62.841,86.904,60.714,84.284,60.714z M85.141,62.884l0.473,0.476l-3.855,3.855    l-0.473-0.469L85.141,62.884z M80.516,62.886l0.471,0.472l-3.856,3.857l-0.476-0.473L80.516,62.886z M75.887,62.884l0.467,0.476    L72.5,67.218l-0.473-0.476L75.887,62.884z M71.257,62.886l0.474,0.468l-3.855,3.861L67.4,66.742L71.257,62.886z M66.629,62.884    l0.473,0.476l-3.854,3.855l-0.476-0.473L66.629,62.884z M61.997,62.886l0.476,0.474l-3.855,3.855l-0.475-0.473L61.997,62.886z     M57.372,62.884l0.472,0.474l-3.855,3.86l-0.475-0.476L57.372,62.884z M52.743,62.884l0.474,0.474l-3.859,3.86l-0.474-0.476    L52.743,62.884z M48.114,62.884l0.473,0.474l-3.857,3.857l-0.476-0.473L48.114,62.884z M48.114,77.411l-3.86-3.858l0.476-0.473    l3.857,3.855L48.114,77.411z M52.743,77.408l-3.859-3.855l0.474-0.475l3.859,3.857L52.743,77.408z M57.372,77.408l-3.858-3.855    l0.475-0.473l3.855,3.857L57.372,77.408z M61.997,77.408l-3.854-3.855l0.475-0.473l3.855,3.857L61.997,77.408z M66.629,77.411    l-3.857-3.858l0.476-0.473l3.854,3.855L66.629,77.411z M71.257,77.411L67.4,73.553l0.475-0.473l3.855,3.857L71.257,77.411z     M75.887,77.408l-3.859-3.854L72.5,73.08l3.854,3.857L75.887,77.408z M80.516,77.408l-3.861-3.855l0.476-0.473l3.856,3.857    L80.516,77.408z M85.141,77.411l-3.855-3.854l0.473-0.477l3.855,3.855L85.141,77.411z M87.393,71.654H42.3v-0.668h45.093V71.654z     M87.393,69.105H42.3v-0.67h45.093V69.105z"/>
		<polygon points="42.353,60.177 50.211,56.327 47.105,49.984   "/>
		<polygon points="32.896,56.305 0,72.417 3.359,79.275 27.759,67.324   "/>
		
			<rect x="18.179" y="57.312" transform="matrix(-0.4225 0.9064 -0.9064 -0.4225 107.0103 54.0759)" width="36.196" height="7.636"/>
	</g>
</g>
</svg>