<svg xmlns="http://www.w3.org/2000/svg" xmlns:xlink="http://www.w3.org/1999/xlink" version="1.1" x="0px" y="0px" width="100px" height="100px" viewBox="-346 256 100 100" enable-background="new -346 256 100 100" xml:space="preserve">
<g id="Layer_1">
	<path d="M-332.109,313.26c-2.988-1.769-3.974-5.624-2.207-8.608c1.77-2.986,5.622-3.975,8.61-2.206   c2.983,1.768,3.971,5.624,2.201,8.612C-325.271,314.04-329.126,315.028-332.109,313.26z"/>
	<path d="M-299.756,313.996c-0.28-1.691-1.878-2.835-3.568-2.555l-28.933,4.79c-0.015,0.003-0.547,0.115-0.591,0.127   c-8.948,2.679-12.967,18.964-13.152,24.722h18.486l3.158-13.907l19.344-0.014c1.713-0.001,3.101-1.392,3.1-3.104   c-0.001-1.714-1.391-3.101-3.104-3.101h-0.001l-17.849,0.013l20.556-3.402C-300.619,317.284-299.476,315.686-299.756,313.996z"/>
	<path d="M-266.672,311.565l3.566-3.244l-2.146-2.366l8.365-7.607l1.237,1.363l2.918-2.652l-1.416-1.559c0,0,2.918-2.653,3.68-6.896   c0.756-4.246-0.199-7.643-0.199-7.643l2.72-2.536l-1.061-1.166l2.889-2.628l-1.945-2.142l-2.891,2.628l-1.061-1.166l-2.72,2.537   c0,0-3.289-1.272-7.587-0.919c-4.299,0.352-7.215,3.007-7.215,3.007l-1.416-1.556l-2.917,2.652l1.236,1.361l-8.365,7.607   l-2.342-2.576l-3.567,3.246l-11.413-12.551l-18.135,16.492l3.328,3.659l7.538-6.854l2.354,2.587l-7.537,6.856l2.506,2.757   l7.538-6.854l2.355,2.588l-7.538,6.853l2.506,2.757l7.536-6.856l2.356,2.59l-7.538,6.857l2.506,2.757l7.538-6.857l2.353,2.591   l-7.538,6.856l2.507,2.756l7.539-6.854l2.354,2.588l-7.538,6.855l2.507,2.757l7.537-6.855l2.354,2.589l-7.537,6.854l2.506,2.758   l7.537-6.855l2.354,2.589l-7.537,6.855l2.507,2.756l7.538-6.854l2.353,2.588l-7.538,6.855l3.374,3.709l18.135-16.49   L-266.672,311.565z M-301.295,290.878l-2.354-2.589l2.414-2.195l2.354,2.587L-301.295,290.878z M-296.434,296.223l-2.354-2.588   l2.415-2.194l2.353,2.588L-296.434,296.223z M-261.513,293.302l2.354,2.589l-8.29,7.54l-2.354-2.588L-261.513,293.302z    M-265.997,288.369l2.354,2.59l-8.292,7.539l-2.354-2.59L-265.997,288.369z M-270.481,283.438l2.353,2.588l-8.29,7.539   l-2.354-2.588L-270.481,283.438z M-291.574,301.569l-2.354-2.591l2.414-2.195l2.354,2.59L-291.574,301.569z M-286.714,306.915   l-2.354-2.589l2.414-2.197l2.354,2.589L-286.714,306.915z M-281.854,312.262l-2.354-2.588l2.414-2.196l2.354,2.587   L-281.854,312.262z M-288.213,294.613l11.725,5.522l4.598,12.431L-288.213,294.613z M-276.991,317.607l-2.355-2.59l2.414-2.193   l2.354,2.589L-276.991,317.607z M-272.132,322.952l-2.355-2.589l2.416-2.194l2.353,2.59L-272.132,322.952z M-267.271,328.299   l-2.354-2.59l2.414-2.195l2.354,2.59L-267.271,328.299z"/>
</g>
<g id="Layer_2">
</g>
</svg>